# File created by Blade
# Date/Time:  Thu Jan 22 16:21:49 2015
#---------------------------------------------------------
:version 1.10
:name HOM
:units
  mass 1.0
  length 1.000000
  angle deg
:documentation
     Acclaim Skeleton File
:root
   axis xyz
   order TX TY TZ RX RY RZ
   position 0.000000 0.000000 0.000000
   orientation 0 0 0
:bonedata
   begin
      id 1
      name RightUpLeg_dum
      direction -1.000000 0.000000 0.000000
      length 3.766986
      axis 0.0 0.0 0.0 xyz
   end
   begin
      id 2
      name LeftUpLeg_dum
      direction 1.000000 0.000000 0.000000
      length 3.766986
      axis 0.0 0.0 0.0 xyz
   end
   begin
      id 3
      name Spine_dum
      direction 0.000000 1.000000 0.000000
      length 7.779697
      axis 0.0 0.0 0.0 xyz
   end
   begin
      id 4
      name RightUpLeg
      direction 0.000000 -1.000000 0.000000
      length 18.017682
      axis 0.0 0.0 0.0 xyz
      dof rx ry rz
   end
   begin
      id 5
      name RightLeg
      direction 0.000000 -1.000000 0.000000
      length 16.881075
      axis 0.0 0.0 0.0 xyz
      dof rx ry rz
   end
   begin
      id 6
      name RightFoot
      direction 0.000000 -0.258819 0.965926
      length 5.770812
      axis 15.0 0.0 0.0 xyz
      dof rx ry rz
   end
   begin
      id 7
      name RightToeBase
      direction 0.000000 0.000000 1.000000
      length 2.952750
      axis 0.0 0.0 0.0 xyz
      dof rx ry rz
   end
   begin
      id 8
      name LeftUpLeg
      direction 0.000000 -1.000000 0.000000
      length 18.017682
      axis 0.0 0.0 0.0 xyz
      dof rx ry rz
   end
   begin
      id 9
      name LeftLeg
      direction 0.000000 -1.000000 0.000000
      length 16.881075
      axis 0.0 0.0 0.0 xyz
      dof rx ry rz
   end
   begin
      id 10
      name LeftFoot
      direction 0.000000 -0.258819 0.965926
      length 5.770812
      axis 15.0 0.0 0.0 xyz
      dof rx ry rz
   end
   begin
      id 11
      name LeftToeBase
      direction 0.000000 0.000000 1.000000
      length 2.952750
      axis 0.0 0.0 0.0 xyz
      dof rx ry rz
   end
   begin
      id 12
      name Spine
      direction 0.000000 1.000000 0.000000
      length 0.000000
      axis 0.0 0.0 0.0 xyz
      dof rx ry rz
   end
   begin
      id 13
      name Spine_dum1
      direction 0.000000 1.000000 0.000000
      length 10.941760
      axis 0.0 0.0 0.0 xyz
   end
   begin
      id 14
      name Spine_dum2
      direction 0.000000 1.000000 0.000000
      length 10.941760
      axis 0.0 0.0 0.0 xyz
   end
   begin
      id 15
      name Spine_dum3
      direction 0.000000 1.000000 0.000000
      length 16.646042
      axis 0.0 0.0 0.0 xyz
   end
   begin
      id 16
      name RightShoulder
      direction -1.000000 0.000000 0.000000
      length 7.708937
      axis 0.0 0.0 90.0 xyz
      dof rx ry rz
   end
   begin
      id 17
      name RightArm
      direction -1.000000 0.000000 0.000000
      length 11.521345
      axis 0.0 0.0 90.0 xyz
      dof rx ry rz
   end
   begin
      id 18
      name RightForeArm
      direction -1.000000 0.000000 0.000000
      length 10.175898
      axis 0.0 0.0 90.0 xyz
      dof ry rz rx
   end
   begin
      id 19
      name RightHand
      direction -1.000000 0.000000 0.000000
      length 0.000000
      axis 0.0 0.0 90.0 xyz
      dof rx ry rz
   end
   begin
      id 20
      name RightHand_dum1
      direction -1.000000 0.000000 0.000000
      length 3.937000
      axis 0.0 0.0 90.0 xyz
   end
   begin
      id 21
      name RightHand_dum2
      direction 0.000000 0.000000 0.000000
      length 0.000000
      axis 0.0 0.0 90.0 xyz
   end
   begin
      id 22
      name RightHandThumb1
      direction 0.000000 0.000000 1.000000
      length 3.937000
      axis 0.0 0.0 90.0 xyz
      dof rx rz ry
   end
   begin
      id 23
      name LeftShoulder
      direction 1.000000 0.000000 0.000000
      length 7.708937
      axis 0.0 0.0 -90.0 xyz
      dof rx ry rz
   end
   begin
      id 24
      name LeftArm
      direction 1.000000 0.000000 0.000000
      length 11.521345
      axis 0.0 0.0 -90.0 xyz
      dof rx ry rz
   end
   begin
      id 25
      name LeftForeArm
      direction 1.000000 0.000000 0.000000
      length 10.175898
      axis 0.0 0.0 -90.0 xyz
      dof ry rz rx
   end
   begin
      id 26
      name LeftHand
      direction 1.000000 0.000000 0.000000
      length 0.000000
      axis 0.0 0.0 -90.0 xyz
      dof rx ry rz
   end
   begin
      id 27
      name LeftHand_dum1
      direction 1.000000 0.000000 0.000000
      length 3.937000
      axis 0.0 0.0 -90.0 xyz
   end
   begin
      id 28
      name LeftHand_dum2
      direction 0.000000 0.000000 0.000000
      length 0.000000
      axis 0.0 0.0 -90.0 xyz
   end
   begin
      id 29
      name LeftHandThumb1
      direction 0.000000 0.000000 1.000000
      length 3.937000
      axis 0.0 0.0 -90.0 xyz
      dof rx rz ry
   end
   begin
      id 30
      name Head
      direction 0.000000 1.000000 0.000000
      length 4.527550
      axis 0.0 0.0 0.0 xyz
      dof rx ry rz
   end
:hierarchy
   begin
      root RightUpLeg_dum LeftUpLeg_dum Spine_dum
      RightUpLeg_dum RightUpLeg
      LeftUpLeg_dum LeftUpLeg
      Spine_dum Spine
      RightUpLeg RightLeg
      RightLeg RightFoot
      RightFoot RightToeBase
      LeftUpLeg LeftLeg
      LeftLeg LeftFoot
      LeftFoot LeftToeBase
      Spine Spine_dum1 Spine_dum2 Spine_dum3
      Spine_dum1 RightShoulder
      Spine_dum2 LeftShoulder
      Spine_dum3 Head
      RightShoulder RightArm
      RightArm RightForeArm
      RightForeArm RightHand
      RightHand RightHand_dum1 RightHand_dum2
      RightHand_dum2 RightHandThumb1
      LeftShoulder LeftArm
      LeftArm LeftForeArm
      LeftForeArm LeftHand
      LeftHand LeftHand_dum1 LeftHand_dum2
      LeftHand_dum2 LeftHandThumb1
   end

# File created by Blade
# Date/Time:  Thu Jan 22 16:21:39 2015
# Frame Rate: 120.000 fps
#------------------------------------------------------
:FULLY-SPECIFIED
:DEGREES
1
root 2.944044 37.027113 3.221836 -4.776417 -0.995282 2.362898
RightUpLeg 13.294024 -6.893725 -7.105517
RightLeg -5.326477 -0.000000 0.000000
RightFoot -12.105212 -14.562188 18.089908
RightToeBase 15.036636 -0.000000 -0.000000
LeftUpLeg 11.716372 1.110273 3.120159
LeftLeg -2.697825 -0.000000 0.000000
LeftFoot -8.048536 9.853685 -18.668846
LeftToeBase 8.564485 -0.000000 -0.000000
Spine 7.834472 -4.900299 -4.099061
RightShoulder -3.596055 -13.469113 -24.478803
RightArm 12.814965 27.152534 35.079576
RightForeArm 6.151071 -0.000000 20.080148
RightHand 1.804837 -0.000000 4.105248
RightHandThumb1 -24.326973 -0.000000 -32.862282
LeftShoulder -23.303372 34.224646 12.705898
LeftArm 51.157739 -47.382012 -64.146399
LeftForeArm 39.393140 -0.000000 9.594206
LeftHand -20.097980 -0.000000 -5.505886
LeftHandThumb1 -26.253704 0.000000 33.147579
Head 3.671831 11.560759 5.031947
2
root 2.940603 37.026884 3.220251 -4.785845 -0.994957 2.360244
RightUpLeg 13.297973 -6.886736 -7.098135
RightLeg -5.318936 -0.000000 0.000000
RightFoot -12.109994 -14.562145 18.086428
RightToeBase 15.034069 -0.000000 -0.000000
LeftUpLeg 11.717410 1.119623 3.130524
LeftLeg -2.683839 -0.000000 0.000000
LeftFoot -8.040762 9.842620 -18.637451
LeftToeBase 8.526652 -0.000000 -0.000000
Spine 7.849620 -4.893364 -4.101284
RightShoulder -3.592637 -13.461658 -24.467971
RightArm 12.795813 27.166974 35.086971
RightForeArm 6.152252 -0.000000 20.098896
RightHand 1.780462 -0.000000 4.113091
RightHandThumb1 -24.326973 -0.000000 -32.862282
LeftShoulder -23.303211 34.219943 12.721561
LeftArm 51.164948 -47.377062 -64.161550
LeftForeArm 39.400567 -0.000000 9.606466
LeftHand -20.093353 -0.000000 -5.538069
LeftHandThumb1 -26.253704 0.000000 33.147579
Head 3.665483 11.508447 5.036237
3
root 2.937928 37.027144 3.217996 -4.797424 -0.996697 2.355092
RightUpLeg 13.294146 -6.888084 -7.090863
RightLeg -5.294636 -0.000000 0.000000
RightFoot -12.122211 -14.554074 18.082849
RightToeBase 15.027372 -0.000000 -0.000000
LeftUpLeg 11.716940 1.120488 3.139883
LeftLeg -2.665327 -0.000000 0.000000
LeftFoot -8.056674 9.834443 -18.690124
LeftToeBase 8.542990 -0.000000 -0.000000
Spine 7.873430 -4.892366 -4.092063
RightShoulder -3.588189 -13.463052 -24.458672
RightArm 12.788425 27.187819 35.088224
RightForeArm 6.141413 -0.000000 20.115132
RightHand 1.798152 0.000000 4.131902
RightHandThumb1 -24.326973 -0.000000 -32.862282
LeftShoulder -23.302522 34.210170 12.719405
LeftArm 51.204422 -47.418933 -64.245522
LeftForeArm 39.466710 -0.000000 9.647212
LeftHand -20.114593 -0.000000 -5.572115
LeftHandThumb1 -26.253704 0.000000 33.147579
Head 3.652973 11.499796 5.024216
4
root 2.935651 37.026871 3.215311 -4.808100 -1.003218 2.352016
RightUpLeg 13.295584 -6.859851 -7.080959
RightLeg -5.286210 -0.000000 0.000000
RightFoot -12.129437 -14.568236 18.066977
RightToeBase 15.011730 -0.000000 -0.000000
LeftUpLeg 11.717653 1.132888 3.149166
LeftLeg -2.653723 -0.000000 0.000000
LeftFoot -8.061313 9.827463 -18.664212
LeftToeBase 8.541588 -0.000000 -0.000000
Spine 7.901851 -4.883599 -4.085684
RightShoulder -3.598715 -13.454980 -24.456223
RightArm 12.803904 27.202649 35.111524
RightForeArm 6.120934 -0.000000 20.112972
RightHand 1.797268 -0.000000 4.126146
RightHandThumb1 -24.326973 -0.000000 -32.862282
LeftShoulder -23.306572 34.192319 12.717545
LeftArm 51.187770 -47.408804 -64.220997
LeftForeArm 39.428408 0.000000 9.633604
LeftHand -20.076732 -0.000000 -5.544716
LeftHandThumb1 -26.253704 0.000000 33.147579
Head 3.618768 11.508676 5.027089
